PathFileType	4	(X/Y/Z)	Patient4_TMGait_0pt4_01_right_21.trc.trc
DataRate	CameraRate	NumFrames	NumMarkers	Units	OrigDataRate	OrigDataStartFrame	OrigNumFrames
79.096045197740	79.096045197740	5	33	mm	79.096045197740	53	       141
Frame#	Time	Sacral			L.Shoulder			Chest			R.Shoulder			Neck			R.ASIS			L.ASIS			R.Thigh.Superior			R.Thigh.Lateral			R.Thigh.Inferior			R.Patella			L.Thigh.Superior			L.Thigh.Lateral			L.Thigh.Inferior			L.Patella			L.Shank.Superior			L.Shank.Lateral			L.Shank.Inferior			R.Shank.Superior			R.Shank.Lateral			R.Shank.Inferior			R.Heel			R.Midfoot.Superior			R.Midfoot.Lateral			R.Toe			L.Heel			L.Midfoot.Lateral			L.Midfoot.Superior			L.Toe			L.Elbow			L.Wrist			R.Elbow			R.Wrist			
		X1	Y1	Z1	X2	Y2	Z2	X3	Y3	Z3	X4	Y4	Z4	X5	Y5	Z5	X6	Y6	Z6	X7	Y7	Z7	X8	Y8	Z8	X9	Y9	Z9	X10	Y10	Z10	X11	Y11	Z11	X12	Y12	Z12	X13	Y13	Z13	X14	Y14	Z14	X15	Y15	Z15	X16	Y16	Z16	X17	Y17	Z17	X18	Y18	Z18	X19	Y19	Z19	X20	Y20	Z20	X21	Y21	Z21	X22	Y22	Z22	X23	Y23	Z23	X24	Y24	Z24	X25	Y25	Z25	X26	Y26	Z26	X27	Y27	Z27	X28	Y28	Z28	X29	Y29	Z29	X30	Y30	Z30	X31	Y31	Z31	X32	Y32	Z32	X33	Y33	Z33	

53	27.717428571429	661.920563803753	1004.767664681990	492.612998826731	827.345820964496	1434.304209412275	296.987305693452	945.131164659180	1365.166226016568	448.058511241358	877.799658958912	1442.902948639110	627.550268122364	840.327176786567	1496.404664592805	451.219094431973	897.699673586183	948.583566579789	596.518527629561	865.996446518299	965.890527997873	324.092686402069	923.160767659048	737.059101080248	565.885256079963	835.021521067233	632.702783797309	629.660149129583	903.764133900674	575.929573396023	547.061647959805	895.563344882293	490.498657651245	552.332609165006	958.770522648562	790.677156381798	354.434266626392	924.884130185056	660.715787251918	275.001914442451	1034.240764613683	609.255850399600	335.108198976457	1057.547900951581	524.742435633330	327.710468927035	1006.068382566927	449.483508742465	319.596609889756	878.343710749357	373.837636383736	274.946806874090	903.440482022649	244.223158534732	325.854276733067	865.416496560891	402.614796363215	560.846396271342	789.209465356504	300.915086135770	619.699367014343	830.924595523794	205.347398772294	557.583714191964	696.147457684529	41.384677771340	517.877293267015	862.590429516841	96.475104054519	568.853288538939	771.991167881506	35.850150252468	601.094419691592	979.970918843735	46.163742358695	610.057273861368	739.955212023546	136.472846918632	372.356484969662	799.597964548964	106.191813347428	286.991492381823	901.173697050039	136.359646069041	302.032926391980	998.372136681174	44.583034843803	264.725836362260	766.626804177044	1086.199454934695	186.538185200869	819.276007820562	832.648154719158	157.107064229675	976.824399388855	1112.771797851330	743.342732626055	1211.212539809874	1066.664476410652	651.555298936359	
54	27.730071428571	662.196085230293	1005.420319211531	494.258328363407	827.748656481982	1433.999694632046	297.412679556669	946.598195335849	1364.611675076081	447.497785929750	881.274826596471	1442.904221087431	627.460449522684	842.240207063276	1496.251954086432	451.438947141797	898.436958327029	948.064578676499	596.546862884533	865.091418121728	966.247144754738	324.257558061174	921.728415747388	736.242819610002	565.520787411680	833.152238828570	632.567352420545	630.010561138318	900.934770758409	575.300040523197	547.167871391285	891.990350218852	489.995087537480	552.538246248908	957.936759548652	791.734812561480	355.039585692520	924.904366199681	661.546321041180	275.567787391035	1033.839238385054	610.642756688424	336.616835961169	1058.555300606789	527.759153252299	328.879834002121	1010.948622815548	451.669429857699	320.101614332064	888.587077414853	368.454162111879	274.609326880240	921.762753858289	240.248954421569	325.188491075400	861.541865072652	402.269645694379	561.034019006448	785.033418141251	300.808422537342	619.933153702360	826.282320019619	205.126078892025	557.683033648289	691.075265477331	41.368693997841	517.960666499507	857.496139648841	96.425802172002	568.892822993803	766.877604104813	35.803976075322	601.060285104439	974.864828363288	46.064901876577	610.100513196480	765.719476665649	121.072153188134	370.844834223973	827.582349479647	95.614937816414	285.555491793604	926.725483119004	132.883220431010	301.046991878773	1030.431724229021	48.702050604649	263.739214305806	762.631844611478	1085.940872942237	189.312694658467	806.655551964045	830.960264755813	160.251929447240	983.844648396184	1114.235183526942	742.325169999245	1217.896548521901	1079.400465149449	646.220619576777	
55	27.742714285714	662.602869893520	1005.936384489025	495.736981266549	828.203563015608	1433.635602077053	297.717832121955	948.096730107678	1363.966428532353	446.813515829000	884.729942854245	1442.738686067908	627.239705149032	844.187827756258	1496.005512287592	451.546146372955	899.299467258265	947.479239925630	596.403114590583	864.389412525993	966.455148990118	324.282589157158	920.471746271431	735.399867298107	565.115392400216	831.453614212981	632.385121577404	630.313381707567	898.277676973305	574.638979748932	547.241083553743	888.575440352691	489.450923795448	552.726666467057	956.982233935565	792.264632767778	355.584251451394	924.714456855935	661.994624141062	275.924282451222	1032.891415952803	611.354052369009	338.216732185946	1058.976991754613	530.317492594750	330.101224144544	1015.386786147164	453.621771804183	320.650066612939	899.156315263888	362.994980221770	273.934902653083	940.215052284130	236.745150124320	324.540871343786	857.794959418932	401.876121095454	561.186968928600	780.962644670544	300.685428722246	620.139598377085	821.697653718463	204.876807704453	557.762055244674	686.008712933687	41.355131306044	518.053746805584	852.411514120818	96.370409481450	568.932963893217	761.768057732674	35.762814391219	601.034050711667	969.765265815094	45.943026467851	610.148193660311	792.244739265267	106.593971373153	368.885265058216	856.381703950120	86.052010319300	283.989386117460	952.561850983486	130.219946890506	300.266782089407	1062.377195400760	53.930813622638	263.532553564047	758.625650943391	1085.750721219097	191.859497659423	794.912600530350	829.738328443693	163.347225487458	990.708577180013	1115.460076058158	741.082630088000	1223.839731027499	1091.226519392646	640.877898351271	
56	27.755357142857	663.148480258357	1006.308129508963	497.039766748439	828.716764388019	1433.214144649737	297.885213634102	949.617791015763	1363.247250051367	446.007822739223	888.119673356232	1442.428196938916	626.882058850341	846.159443755197	1495.674583209853	451.521586066688	900.290944905831	946.845250342214	596.103388122679	863.908556179558	966.517362637876	324.176738709099	919.419561381119	734.534114238662	564.693749019103	829.934074343603	632.155525354474	630.559670192751	895.809943637322	573.941936568332	547.278224815754	885.343796982727	488.863976955949	552.888427678654	955.944934137261	792.296325192624	356.066316343293	924.363131684060	662.110597539401	276.035343476131	1031.491539333762	611.449870605169	339.807394534325	1058.900365152419	532.452230309285	331.313816955350	1019.388955067783	455.383093330425	321.224887652762	909.954377400912	357.697371041200	272.933845994880	958.488468593013	233.928262985285	323.971688554257	854.192762851048	401.434079979945	561.295674008942	777.008239666081	300.551942668125	620.312234648778	817.181221598312	204.601078209807	557.815952645807	680.946135946369	41.347266409618	518.154827199491	847.337988006178	96.309700679558	568.971223574505	756.664466459552	35.730250306381	601.019464016956	964.674539277380	45.799175940781	610.201808877952	819.037081890932	93.527356214520	366.538998933010	885.512284749624	77.845752901046	282.411795882519	978.238175304194	128.571736554269	299.805166622872	1093.637241500761	60.281700324848	264.344890115135	754.630232083177	1085.627123618507	194.163547498921	784.108899643160	828.899501961394	166.324209723518	997.396024753585	1116.465973928288	739.615055704327	1229.125214247919	1102.064324547220	635.541181874233	
57	27.768000000000	663.843507469765	1006.536254960720	498.156517919959	829.294500264960	1432.740698228292	297.899757333398	951.154184621496	1362.476952394719	445.085302773342	891.405124313154	1442.004964589801	626.382759475611	848.143533671604	1495.273220308113	451.348378462190	901.415898491752	946.181586998849	595.666959805355	863.666404557876	966.447319141013	323.947169623292	918.588139990302	733.648479733666	564.273869410067	828.587790047088	631.881782127344	630.736376523852	893.532956538918	573.205846914937	547.273394770954	882.304156600160	488.235107081316	553.011863972200	954.874520245767	791.875921624866	356.468266815959	923.888703824568	661.942819380100	275.879425898751	1029.748523904874	611.000688510661	341.268503183427	1058.407531221965	534.193724727282	332.448856294571	1022.957886535367	456.980750941984	321.790659685920	920.819466198780	352.744741997288	271.651326933736	976.270021691496	231.918545875560	323.517034758778	850.740269388191	400.948808743495	561.351980553057	773.169817026895	300.415886160802	620.444211134195	812.736733584185	204.303676256660	557.841041861046	675.886617399260	41.348928553966	518.261835070110	842.277083580916	96.245765323090	569.005774218609	751.567746550161	35.709261442177	601.017375423345	959.593994780226	45.636446559705	610.262137038956	845.580937630101	82.191060177224	363.913333621547	914.448395437258	71.175943422321	280.940692662800	1003.310938706996	128.013610875044	299.722968264682	1123.687691927762	67.649365756329	266.279511719314	750.684057915434	1085.567914833981	196.214305170188	774.284236873548	828.362815043766	169.118781478243	1003.874013572708	1117.281472718665	737.923104150125	1233.831127326823	1111.860081679783	630.223903342280	
